HIERARCHY
ROOT hips
{
  OFFSET 0 9.313263304106702 1.2146308026317778
  CHANNELS 6 Xposition Yposition Zposition Yrotation Xrotation Zrotation
  JOINT spine
  {
    OFFSET -6.402521e-31 0.5173342420023708 0
    CHANNELS 3 Yrotation Xrotation Zrotation
    JOINT chest
    {
      OFFSET 0 1.130544299341115 0
      CHANNELS 3 Yrotation Xrotation Zrotation
      JOINT upperChest
      {
        OFFSET 0 1.0863555061129995 0
        CHANNELS 3 Yrotation Xrotation Zrotation
        JOINT neck
        {
          OFFSET 0 1.3773706506454462 0
          CHANNELS 3 Yrotation Xrotation Zrotation
          JOINT head
          {
            OFFSET 0 0.7374408940073979 0
            CHANNELS 3 Yrotation Xrotation Zrotation
            JOINT leftEye
            {
              OFFSET 0.25066580148932727 0.6408406698778757 0.15963719178883284
              CHANNELS 3 Yrotation Xrotation Zrotation
              End Site
              {
                OFFSET 0.25066580148932727 0.6408406698778757 0.15963719178883284
              }
            }
            JOINT rightEye
            {
              OFFSET -0.25066576739704244 0.6408406384191823 0.15963727561643756
              CHANNELS 3 Yrotation Xrotation Zrotation
              End Site
              {
                OFFSET -0.25066576739704244 0.6408406384191823 0.15963727561643756
              }
            }
          }
        }
        JOINT leftShoulder
        {
          OFFSET 0.3761817444281191 1.0539491987447769 0
          CHANNELS 3 Yrotation Xrotation Zrotation
          JOINT leftUpperArm
          {
            OFFSET 0.8702844380000002 0 0
            CHANNELS 3 Yrotation Xrotation Zrotation
            JOINT leftLowerArm
            {
              OFFSET 2.198527310000323 0 0
              CHANNELS 3 Yrotation Xrotation Zrotation
              JOINT leftHand
              {
                OFFSET 2.146852313968281 0 0
                CHANNELS 3 Yrotation Xrotation Zrotation
                JOINT leftIndexProximal
                {
                  OFFSET 0.6585177834681599 0.07380250427007962 0.18382213159631788
                  CHANNELS 3 Yrotation Xrotation Zrotation
                  JOINT leftIndexIntermediate
                  {
                    OFFSET 0.3323021288626682 -0.009606893929485771 -0.012820872253340998
                    CHANNELS 3 Yrotation Xrotation Zrotation
                    JOINT leftIndexDistal
                    {
                      OFFSET 0.2045908926985518 -0.0071133989147997845 -0.006828784783599051
                      CHANNELS 3 Yrotation Xrotation Zrotation
                      End Site
                      {
                        OFFSET 0.2045908926985518 -0.0071133989147997845 -0.006828784783599051
                      }
                    }
                  }
                }
                JOINT leftLittleProximal
                {
                  OFFSET 0.6110054258835662 0.07380246363125398 -0.29175655876064077
                  CHANNELS 3 Yrotation Xrotation Zrotation
                  JOINT leftLittleIntermediate
                  {
                    OFFSET 0.3144281999999998 -2.5124724523095665e-9 1.8658118799974588e-7
                    CHANNELS 3 Yrotation Xrotation Zrotation
                    JOINT leftLittleDistal
                    {
                      OFFSET 0.18116185580251631 0.002815456192251098 0.0034826415518049436
                      CHANNELS 3 Yrotation Xrotation Zrotation
                      End Site
                      {
                        OFFSET 0.18116185580251631 0.002815456192251098 0.0034826415518049436
                      }
                    }
                  }
                }
                JOINT leftMiddleProximal
                {
                  OFFSET 0.6637478005691111 0.07380246480054087 0.02046981859247815
                  CHANNELS 3 Yrotation Xrotation Zrotation
                  JOINT leftMiddleIntermediate
                  {
                    OFFSET 0.3705733999999994 -2.9611069152224445e-9 9.35054791928458e-8
                    CHANNELS 3 Yrotation Xrotation Zrotation
                    JOINT leftMiddleDistal
                    {
                      OFFSET 0.22861063500000056 -1.82673876025774e-9 -1.6740782024515788e-7
                      CHANNELS 3 Yrotation Xrotation Zrotation
                      End Site
                      {
                        OFFSET 0.22861063500000056 -1.82673876025774e-9 -1.6740782024515788e-7
                      }
                    }
                  }
                }
                JOINT leftRingProximal
                {
                  OFFSET 0.6561845547265777 0.07380246406440083 -0.13588087571513918
                  CHANNELS 3 Yrotation Xrotation Zrotation
                  JOINT leftRingIntermediate
                  {
                    OFFSET 0.3437531000000005 -2.746796123886952e-9 1.4935781944558357e-7
                    CHANNELS 3 Yrotation Xrotation Zrotation
                    JOINT leftRingDistal
                    {
                      OFFSET 0.1983118991198174 -0.002467117924596085 -0.004538141969590015
                      CHANNELS 3 Yrotation Xrotation Zrotation
                      End Site
                      {
                        OFFSET 0.1983118991198174 -0.002467117924596085 -0.004538141969590015
                      }
                    }
                  }
                }
                JOINT leftThumbProximal
                {
                  OFFSET 0.09767004258864787 -0.14930060425447422 -0.07008212897521154
                  CHANNELS 3 Yrotation Xrotation Zrotation
                  JOINT leftThumbIntermediate
                  {
                    OFFSET 0.36682123028154767 -0.015768465060082004 0.28693641268151077
                    CHANNELS 3 Yrotation Xrotation Zrotation
                    JOINT leftThumbDistal
                    {
                      OFFSET 0.21091084272403915 -0.016756648201192714 0.1933767059105508
                      CHANNELS 3 Yrotation Xrotation Zrotation
                      End Site
                      {
                        OFFSET 0.21091084272403915 -0.016756648201192714 0.1933767059105508
                      }
                    }
                  }
                }
              }
            }
          }
        }
        JOINT rightShoulder
        {
          OFFSET -0.37618174442811925 1.0539491987447769 0
          CHANNELS 3 Yrotation Xrotation Zrotation
          JOINT rightUpperArm
          {
            OFFSET -0.870284438 0 0
            CHANNELS 3 Yrotation Xrotation Zrotation
            JOINT rightLowerArm
            {
              OFFSET -2.1985273100003235 0 0
              CHANNELS 3 Yrotation Xrotation Zrotation
              JOINT rightHand
              {
                OFFSET -2.1468523139682802 0 0
                CHANNELS 3 Yrotation Xrotation Zrotation
                JOINT rightIndexProximal
                {
                  OFFSET -0.6585177834681599 0.07380250427007962 0.18382213159631788
                  CHANNELS 3 Yrotation Xrotation Zrotation
                  JOINT rightIndexIntermediate
                  {
                    OFFSET -0.3323021288626682 -0.009606893929485771 -0.012820872253340998
                    CHANNELS 3 Yrotation Xrotation Zrotation
                    JOINT rightIndexDistal
                    {
                      OFFSET -0.2045908926985518 -0.0071133989147997845 -0.006828784783599051
                      CHANNELS 3 Yrotation Xrotation Zrotation
                      End Site
                      {
                        OFFSET -0.2045908926985518 -0.0071133989147997845 -0.006828784783599051
                      }
                    }
                  }
                }
                JOINT rightLittleProximal
                {
                  OFFSET -0.6110054258835662 0.07380246363125398 -0.29175655876064077
                  CHANNELS 3 Yrotation Xrotation Zrotation
                  JOINT rightLittleIntermediate
                  {
                    OFFSET -0.3144281999999998 -2.5124724523095665e-9 1.8658118799974588e-7
                    CHANNELS 3 Yrotation Xrotation Zrotation
                    JOINT rightLittleDistal
                    {
                      OFFSET -0.18116185580251631 0.002815456192251098 0.0034826415518049436
                      CHANNELS 3 Yrotation Xrotation Zrotation
                      End Site
                      {
                        OFFSET -0.18116185580251631 0.002815456192251098 0.0034826415518049436
                      }
                    }
                  }
                }
                JOINT rightMiddleProximal
                {
                  OFFSET -0.6637478005691111 0.07380246480054087 0.02046981859247815
                  CHANNELS 3 Yrotation Xrotation Zrotation
                  JOINT rightMiddleIntermediate
                  {
                    OFFSET -0.3705733999999994 -2.9611069152224445e-9 9.35054791928458e-8
                    CHANNELS 3 Yrotation Xrotation Zrotation
                    JOINT rightMiddleDistal
                    {
                      OFFSET -0.22861063500000056 -1.82673876025774e-9 -1.6740782024515788e-7
                      CHANNELS 3 Yrotation Xrotation Zrotation
                      End Site
                      {
                        OFFSET -0.22861063500000056 -1.82673876025774e-9 -1.6740782024515788e-7
                      }
                    }
                  }
                }
                JOINT rightRingProximal
                {
                  OFFSET -0.6561845547265777 0.07380246406440083 -0.13588087571513918
                  CHANNELS 3 Yrotation Xrotation Zrotation
                  JOINT rightRingIntermediate
                  {
                    OFFSET -0.3437531000000005 -2.746796123886952e-9 1.4935781944558357e-7
                    CHANNELS 3 Yrotation Xrotation Zrotation
                    JOINT rightRingDistal
                    {
                      OFFSET -0.1983118991198174 -0.002467117924596085 -0.004538141969590015
                      CHANNELS 3 Yrotation Xrotation Zrotation
                      End Site
                      {
                        OFFSET -0.1983118991198174 -0.002467117924596085 -0.004538141969590015
                      }
                    }
                  }
                }
                JOINT rightThumbProximal
                {
                  OFFSET -0.09767004258864787 -0.14930060425447422 -0.07008212897521154
                  CHANNELS 3 Yrotation Xrotation Zrotation
                  JOINT rightThumbIntermediate
                  {
                    OFFSET -0.36682123028154767 -0.015768465060082004 0.28693641268151077
                    CHANNELS 3 Yrotation Xrotation Zrotation
                    JOINT rightThumbDistal
                    {
                      OFFSET -0.21091084272403915 -0.016756648201192714 0.1933767059105508
                      CHANNELS 3 Yrotation Xrotation Zrotation
                      End Site
                      {
                        OFFSET -0.21091084272403915 -0.016756648201192714 0.1933767059105508
                      }
                    }
                  }
                }
              }
            }
          }
        }
      }
    }
  }
  JOINT leftUpperLeg
  {
    OFFSET 0.7715603 -0.3993844658041501 0
    CHANNELS 3 Yrotation Xrotation Zrotation
    JOINT leftLowerLeg
    {
      OFFSET 0 -3.529830000249343 0
      CHANNELS 3 Yrotation Xrotation Zrotation
      JOINT leftFoot
      {
        OFFSET 0 -4.154939295409685 0.004208579085223096
        CHANNELS 3 Yrotation Xrotation Zrotation
        JOINT leftToes
        {
          OFFSET 0 -0.6353414391261847 1.10414981190622
          CHANNELS 3 Yrotation Xrotation Zrotation
          End Site
          {
            OFFSET 0 -0.6015820691747853 1.10414981190622
          }
        }
      }
    }
  }
  JOINT rightUpperLeg
  {
    OFFSET -0.7715603 -0.3993844658041501 0
    CHANNELS 3 Yrotation Xrotation Zrotation
    JOINT rightLowerLeg
    {
      OFFSET 0 -3.529830000249343 0
      CHANNELS 3 Yrotation Xrotation Zrotation
      JOINT rightFoot
      {
        OFFSET 0 -4.154939295409685 0.004208579085223096
        CHANNELS 3 Yrotation Xrotation Zrotation
        JOINT rightToes
        {
          OFFSET 0 -0.6353414391261847 1.10414981190622
          CHANNELS 3 Yrotation Xrotation Zrotation
          End Site
          {
            OFFSET 0 -0.6015820691747853 1.10414981190622
          }
        }
      }
    }
  }
}
MOTION
Frames: 4
Frame Time: 0.03333333333333333
-0.029844069345430893 9.00961095636541 1.6158769439354472 -4.21815358225521 -1.1137883056758757 -0.6017807554304119 0.10010972238667563 0.01778511585818243 0.28509646955555745 0.20031795830065754 0.035075361451219124 0.5702259947953834 0 0 0 1.6007388113307992 6.214406019784632 0.23467115287432652 3.559779909089977 3.8828175571017054 2.1577901609472643 0 0 0 0 0 0 0.9072251218248985 0.008439640068865627 -0.7928917281399889 -0.3035990473119403 -3.338358908031222 -76.37223048276388 0.09438344260738087 16.614404862769337 0.0008899775303208708 5.988196302251879 -3.230801813094657 28.248776962505243 2.2512426311895015 0.8976171692492241 -33.12798973938792 0.000017914510781554858 0.000006638545738236493 -26.34210180962142 0.000008924404790027996 0.0000011640407756494773 -7.431331666538441 17.52729690087471 -16.41049102704791 -29.703840472231064 0.000018036860664374633 0.000003830362867325227 -24.518199404567934 0.000010446256542453579 0.000003588275940078691 -13.763102323704675 -0.20237759687088988 -0.15564243344059983 -37.55972090602982 0.000012757290524215293 0.0000026928694946021123 -16.31799754341143 0.000008943361506596016 0.000001419962963093754 -15.36190132643925 8.805304351928985 -9.585068631266138 -38.457665609616974 0.000023388338006105178 0.000004240948151819964 -24.898502301013934 0.000006079652766500197 1.944788326637045e-7 -11.29450198460611 27.17390483306517 0.6238862897992173 -34.53264458925009 4.313639043524131 -7.966368615571521 6.74344673544212 13.143944655431694 -7.811753228700057e-7 0.000012140418839524103 -0.03567954204005649 0.04891451573958781 1.8487211297437074 -5.408121603562506 -10.2213497029147 75.04247783754644 -0.09544630859777803 30.89115482571975 0.00871329741442974 -7.0627335228938755 -2.2710709795063138 -17.737322741171678 -5.711973069623662 0.9750397033090541 26.133003476896906 -0.000019564183174407707 0.0000018007730651047517 20.002498950332118 -0.0000010574962649304416 -9.389897134988594e-7 3.396952148844474 -18.67856109361507 -14.163947724832177 23.205295601147323 -0.000014030012329107681 0.000005306481398541655 20.71779990023444 -0.000010936348162431399 -0.000002322987778476623 14.573095733420995 -2.538116806379622 1.4729561444142738 30.109264743242463 -0.0000019543080575763513 4.2506487418206737e-7 12.270800547712817 -0.000012591996944753015 0.0000033825438215076568 10.637495404054352 -7.223678666283711 -6.466942990695105 29.353557118455484 -0.000014277724716141525 0.000004598538983323281 17.852600730106186 -0.0000049841549289023896 3.9774459646810694e-7 4.562638096629005 -29.634494417015162 5.136570554333817 33.03728792101652 -7.675042020354058 -6.548638950510205 -5.527586921882257 -14.94736569333911 -0.000004253710674534741 -0.00000817960580182759 3.686952103786002 6.084387995363243 -0.9256411598063725 0.042369355172486405 -1.1583207156851656 -0.14945515492606593 3.3151753337309127 -3.7256158334722134 1.3277838918086264 0.009812725254298556 -0.05604218465363666 -0.0692375630599917 -0.07556677555482653 6.297046935750214 2.1086167262837447 -0.054457274068122674 -1.502381019524284 0.19962570199785598 1.2048012898933629 -2.464342381832827 -3.697128103586205 0.09057573825554537 0.5852199298782765 0.03029563091208847
-0.030704757029359986 9.009050889448686 1.618935989770422 -4.163940854358732 -1.2459286445497895 -0.5917336425904987 0.08902001589146247 0.0773101275916429 0.27279617260088557 0.1783960430251952 0.15419562866706937 0.5457117214234763 0 0 0 1.626400670287787 6.434118900590809 0.2845655534800617 3.630203268060002 4.117270747949229 2.3214764702418025 0 0 0 0 0 0 0.892641833354192 0.007831926649376899 -0.858314127283792 -0.23492964574705996 -3.2276309856782364 -76.54272049022259 0.09449778380993129 16.65360624764181 0.0008893607319801597 5.528689461570849 -3.207892849913167 30.035689701173837 2.019985656942723 1.0864720117157656 -33.83407581325749 0.00001823077740397057 0.000008284852137347925 -27.30150136549309 0.000007639199333455257 0.0000031052601128229225 -8.085021214554047 17.70152726697627 -16.35769973260904 -30.53353442038514 0.0000179987843868389 0.000004005462529425899 -25.075003412599433 0.000010175355112903738 0.0000046327265365943955 -14.174401885461457 -0.33161749770252497 -0.26253559453793135 -38.35894735133603 0.00001271330218074878 0.000002893431303482959 -17.22030269412634 0.000009609633668377458 0.0000027667574947403776 -16.061903835840702 8.870611509949939 -9.560060873292255 -39.29392717148005 0.00002331298176014821 0.00000463733462599465 -25.871097704532897 0.000006077620468392054 2.5005017105804625e-7 -11.81830054827367 26.97561213409609 0.9462966814637186 -34.40548311283061 4.346162043763073 -7.703144041088172 6.5167250543454065 12.875446820872002 0.0000016711032247411064 0.000010639897260792054 -0.06800253832286533 0.05058084907150333 1.9817106194520946 -5.567458970815912 -10.201397732202242 75.0227094269858 -0.09502446721767718 30.78274340277357 0.008281774103943526 -6.747442538754283 -2.2415151809060676 -18.293549306085637 -5.365868389957509 1.0368821933485757 26.41191795285265 -0.000023042212234562157 0.0000014340197934528252 21.21130368994551 -0.0000019943266616893986 1.505377395175393e-7 4.316671118207385 -18.94949948156316 -14.223084751391095 24.072992035468456 -0.000013336186080676556 0.0000043756334979163405 22.250399336777587 -0.000010006473257094272 -0.0000024229111376819752 15.443296540258473 -2.4131526970629382 1.4067767514902298 30.223566253816006 -0.000003663646434920635 0.0000018914788206210982 13.270299100179614 -0.000012540120418565478 0.0000035700662721942517 11.492498997562626 -7.578816972211184 -6.636449212161647 29.813505289364645 -0.000014457076652629115 0.000004122250461774244 19.728897234768603 -0.00000587443462556569 0.000001578295656913499 5.576305588514864 -29.514914949417637 5.368104021584977 32.97703096083956 -7.938393082498127 -6.54340277097798 -5.5231110578619855 -15.132467138445955 -0.000004620047064523461 -0.000013253495322957502 3.65922226147308 6.212753652189411 -0.9197839348943215 0.041870345180148955 -1.1077331656418465 -0.1503945184393733 3.291402981524064 -3.7725966604462333 1.31637196516439 0.008947695180978406 -0.04711445677130794 -0.06772633193255477 -0.12172561034820674 6.437602479502246 2.104556698527736 -0.053454952958765144 -1.4461805857664767 0.19308806830440037 1.198314616946223 -2.546720439049035 -3.6878348650187744 0.08900130372432627 0.5677725557060848 0.029734562053020403
-0.03276833079077981 9.008128426291725 1.6247223003131355 -4.008485474757241 -1.4603856519485043 -0.580543063328967 0.05783744658724524 0.1560411605485322 0.24202675732069673 0.11632168478912801 0.31182475455213354 0.4842138617538979 0 0 0 1.615077711520174 6.811411000781264 0.3887420832447815 3.638910852550858 4.413221927041125 2.547648511763984 0 0 0 0 0 0 0.8739350003473928 0.007085378295625006 -0.8185081417705765 -0.11878705021201712 -2.9418352727915718 -77.01669583142312 0.09471478811589322 16.671505004857465 0.0008875034055788079 4.868253639233021 -3.1650371631232725 32.954327890010006 1.4657199505288276 1.3452247576954879 -35.20942727580416 0.000021135602319433062 0.00000928904189870605 -28.69510168448825 0.000009043992017607023 4.5411338897662273e-7 -9.214690744829737 18.00469830735844 -16.306269494918887 -31.892902769646412 0.000019263603353014226 0.000003861813006237536 -26.079496604371716 0.000011081599667401716 0.000005019777548445799 -14.907403661973575 -0.6108733858792255 -0.5092520558805136 -39.810298475857536 0.000013277856845151264 0.000004438302943804398 -18.482899587537748 0.000011099655854439446 0.0000013407594164163272 -17.192400699730488 8.94088031068173 -9.550364941793546 -40.70234311886223 0.000024528926236644217 0.000004830301575629412 -27.400501149441183 0.000006073040062539747 3.4377630852209774e-7 -12.702204447217262 26.661966714114982 1.3420119778780022 -34.22563856096514 4.424888754940327 -7.443174018978445 6.293555962971558 12.554542570844168 9.719486057743056e-7 0.000009436911941623278 -0.15479840413980064 0.05106798382425185 2.145781177922166 -5.943174083307246 -10.037694387237805 75.11571182604258 -0.09418836328885898 30.933543269069354 0.00744760009284207 -6.284486453988025 -2.21595819737046 -19.34693459503241 -4.760743328289434 1.1618849907541304 26.844127843580193 -0.00002336432822781475 0.000001451942549860559 23.53909916418368 -0.000004191737388455351 -0.0000015586331116505672 6.168175291162865 -19.471970100104848 -14.297917899269208 25.25130980117206 -0.00001672719597896841 0.0000067231600954269 25.076497537342526 -0.000013237942868565022 -0.0000021810267481575553 17.209291810240334 -2.195586236253867 1.291787642253212 30.45663899832047 -0.000003855170583174134 0.0000010666121926473903 15.465199797681835 -0.000015333498697989663 0.0000046780119357044465 13.389797812926334 -8.30525255858945 -6.872954317855306 30.53907288638141 -0.000017323061550321443 0.00000528313765384596 23.30070005173655 -0.000008640724146212409 0.0000032152586550371526 7.881690597384626 -29.32952190347993 5.896187035379751 32.80851648095135 -8.567548599886102 -6.573683224156608 -5.549003825420948 -15.608178855458949 -0.0000013024392793920563 -0.000012095604874951159 3.6073884895158606 6.443874184658 -0.8925248456633923 0.040780862985106144 -1.0619848947397534 -0.15189590086402538 3.1868418519791137 -3.828459405949217 1.2997097672329048 0.007161287875197344 -0.05079796112666817 -0.06461332747437229 -0.24088624333411834 6.672778286826506 2.109680821802643 -0.051822244332772514 -1.3480454443670933 0.18231807059551303 1.1636984015620337 -2.678412128294042 -3.689538572423512 0.08628316736074436 0.5493773417057821 0.02879705507728979
-0.03569259223612872 9.007713144475762 1.630415302493755 -3.8501317534965103 -1.564992424515282 -0.582830694527527 0.028393801583360124 0.1824210138895258 0.21444131879104436 0.057487133446052364 0.3647209577766186 0.4289774436194477 0 0 0 1.5429183271435445 6.953920255845451 0.4936977164076833 3.5083893075322816 4.6288775520137415 2.643593690606656 0 0 0 0 0 0 0.8995651993191156 0.009080097043068586 -0.5924724808093214 -0.46557506600104376 -2.5368220807775206 -77.6441154558979 0.09491689387022566 16.701613344784075 0.00089108547112401 4.534261711462934 -3.2304578359900966 35.39868302364986 1.1236088305912768 1.5216082933197514 -36.08763441860425 0.000021127445443452543 0.000007323324351820832 -29.42249959506729 0.000007238204769880327 -7.799925127506256e-7 -9.794908769177686 18.249063725979816 -16.227362139429406 -33.02566282395663 0.00001878551336529366 0.000004909627968050856 -26.5353990977376 0.000012279264860032576 0.000004384022020055419 -15.249203261639982 -0.7644904699800041 -0.6606757873593276 -40.829697830013316 0.00001511942833548797 0.0000052347744955817504 -19.097303095403095 0.000012343206527793216 8.032736641301895e-7 -17.759699113217714 8.973652130129581 -9.512431469939774 -41.734074591889126 0.000025343640025185788 0.000005630269803779128 -28.16750013412079 0.00000607053063034051 3.855612654830426e-7 -13.096502022778662 26.448312233850547 1.630852098169694 -34.09692032187889 4.459911873936633 -7.237897244170688 6.117446265403911 12.274139257307457 9.323155357775266e-7 0.000014530341976494055 -0.2531048104185555 0.04906685769522681 2.227905456996968 -6.31896237103872 -9.773232161859202 75.26291846502033 -0.0933666553292242 31.23004069237679 0.00664003564754631 -5.835753438431844 -2.1418775456229775 -20.08651514735259 -4.160655815279304 1.3762623131696923 27.6093160906357 -0.000024725358922215362 0.000006217446812186708 25.42489746963243 -0.000006079808282901902 -1.8955178451777445e-7 7.676574657389769 -19.852040132667316 -14.303690710553903 25.930683941479565 -0.000018238981504827 0.000008266773152094239 27.244699162103327 -0.00001488017734346207 -0.000003402988935888853 18.725894468178645 -1.9253604963218023 1.1643976307187691 31.15423601049926 -0.0000057231265302598636 0.000001801617616872649 17.473796709021606 -0.000016145286172668884 0.000005415694216527378 15.17679534982542 -8.781938957611558 -6.972880698259612 31.41064045315738 -0.00001971354080091622 0.000005232242265166556 26.174302027991164 -0.000009673721081875822 0.0000027238046381003994 10.014896472069363 -29.296285673477183 6.511390048958206 32.53937188585715 -9.21831946263904 -6.6064171842231865 -5.576825038260138 -15.980074305462107 -0.000005912405868463654 -0.000009749022774958903 3.6637905407150013 6.625403907233434 -0.8276795924057704 0.03956770465660287 -1.1363974959022034 -0.15327076026047784 2.9729728078072366 -3.816553513066214 1.2485529816676835 0.005371858656027631 -0.042804269236659455 -0.06138199065374721 -0.36440905434507587 6.806735629997504 2.135138576517313 -0.0508790530738497 -1.2761383109079107 0.17352142235200615 1.1285621006127373 -2.775747553931225 -3.6960761828293296 0.0833097889240466 0.5324249104762361 0.028019003058201652
